<?xml version="1.0" standalone="no"?>
<!DOCTYPE svg PUBLIC "-//W3C//DTD SVG 20010904//EN"
 "http://www.w3.org/TR/2001/REC-SVG-20010904/DTD/svg10.dtd">
<svg version="1.0" xmlns="http://www.w3.org/2000/svg"
 width="256.000000pt" height="256.000000pt" viewBox="0 0 256.000000 256.000000"
 preserveAspectRatio="xMidYMid meet">
<metadata>
Created by potrace 1.14, written by Peter Selinger 2001-2017
</metadata>
<g transform="translate(0.000000,256.000000) scale(0.100000,-0.100000)"
fill="#000000" stroke="none">
<path d="M209 2263 c-1 -4 -3 -18 -4 -30 -1 -12 -5 -28 -8 -37 -4 -9 -3 -16 1
-16 4 0 8 -8 9 -17 2 -48 11 -104 17 -110 3 -3 6 -14 6 -23 0 -19 35 -133 53
-170 46 -98 120 -190 195 -242 31 -22 42 -35 37 -46 -33 -85 -61 -229 -70
-363 -5 -79 -12 -119 -26 -156 -27 -71 -41 -213 -26 -263 2 -8 8 -30 12 -47 4
-18 11 -33 16 -33 5 0 9 -5 9 -11 0 -13 61 -91 96 -124 54 -50 101 -84 151
-112 12 -6 35 -18 50 -27 25 -14 96 -44 108 -46 3 0 25 -9 50 -20 25 -11 46
-19 48 -18 3 2 107 -22 127 -29 34 -12 262 -17 360 -9 86 7 259 54 355 96 45
19 151 80 184 105 37 28 141 134 141 144 0 6 3 11 8 11 10 0 55 96 59 128 11
81 7 117 -28 238 -12 43 -23 105 -25 137 -3 57 -10 127 -19 177 -2 14 -7 41
-9 60 -3 19 -14 63 -25 98 -11 34 -16 62 -13 62 4 0 1 4 -6 9 -9 5 -1 15 29
35 53 35 117 100 150 151 32 52 80 153 86 184 2 14 6 28 9 33 7 11 28 134 38
226 5 48 -14 62 -77 57 -45 -4 -142 -16 -157 -20 -67 -18 -98 -27 -113 -36
-10 -5 -22 -7 -27 -4 -4 3 -10 2 -12 -2 -1 -5 -31 -23 -66 -41 -62 -33 -100
-60 -131 -94 -8 -10 -21 -18 -29 -18 -7 0 -10 -4 -7 -10 3 -5 2 -10 -3 -10 -5
0 -15 -11 -22 -25 -7 -14 -16 -23 -19 -20 -2 3 -11 -9 -18 -26 -12 -30 -15
-31 -51 -25 -20 4 -43 8 -49 8 -7 1 -13 4 -13 8 0 3 -8 7 -17 8 -22 2 -58 10
-58 12 0 11 -336 19 -350 9 -6 -4 -19 -7 -29 -5 -10 1 -48 -6 -85 -17 -36 -11
-74 -20 -83 -20 -10 -1 -18 -5 -18 -9 0 -4 -7 -5 -15 -2 -8 4 -13 10 -10 14 3
5 2 10 -3 12 -4 1 -23 23 -42 48 -19 25 -45 53 -57 63 -13 10 -29 24 -36 30
-51 48 -222 133 -254 128 -7 -1 -13 2 -13 6 0 5 -8 9 -17 10 -10 1 -29 4 -43
7 -81 18 -220 30 -221 19z"/>
</g>
</svg>
